<svg width="224" height="211" viewBox="0 0 224 211" fill="none" xmlns="http://www.w3.org/2000/svg">
<rect x="82" y="14" width="59" height="118" fill="white"/>
<path d="M18.448 197.608C18.2987 197.608 18.1813 197.565 18.096 197.48C18.0107 197.416 18.0107 197.363 18.096 197.32C18.5653 197.235 18.9707 197.064 19.312 196.808C19.6533 196.531 19.9307 196.189 20.144 195.784C20.592 195.037 21.0293 194.291 21.456 193.544C21.904 192.776 22.3307 192.008 22.736 191.24C23.2267 190.301 23.728 189.363 24.24 188.424C24.752 187.464 25.264 186.515 25.776 185.576C26.2667 184.701 26.704 183.859 27.088 183.048C27.472 182.237 27.76 181.651 27.952 181.288C28.1013 181.011 28.3573 180.765 28.72 180.552C29.104 180.317 29.4773 180.136 29.84 180.008C29.712 180.008 29.584 180.008 29.456 180.008C29.328 179.987 29.1893 179.976 29.04 179.976C28.3787 179.976 27.6533 180.019 26.864 180.104C26.096 180.168 25.3387 180.275 24.592 180.424C23.8667 180.573 23.2267 180.776 22.672 181.032C22.1173 181.288 21.744 181.597 21.552 181.96C21.4667 182.152 21.392 182.344 21.328 182.536C21.264 182.728 21.232 182.92 21.232 183.112C21.232 183.603 21.4027 183.955 21.744 184.168C21.7653 184.168 21.776 184.189 21.776 184.232C21.776 184.275 21.7333 184.317 21.648 184.36C21.584 184.403 21.5307 184.413 21.488 184.392C21.2747 184.285 21.0293 184.029 20.752 183.624C20.496 183.197 20.3253 182.845 20.24 182.568C20.176 182.312 20.144 182.077 20.144 181.864C20.144 181.309 20.3253 180.883 20.688 180.584C21.0507 180.264 21.5093 180.04 22.064 179.912C22.6187 179.763 23.184 179.677 23.76 179.656C24.3573 179.613 24.88 179.592 25.328 179.592C26.0107 179.592 26.8213 179.592 27.76 179.592C28.6987 179.571 29.5627 179.56 30.352 179.56C30.544 179.56 30.7573 179.56 30.992 179.56C31.2267 179.539 31.472 179.528 31.728 179.528C32.304 179.528 32.9013 179.56 33.52 179.624C34.1387 179.688 34.704 179.827 35.216 180.04C35.728 180.253 36.1227 180.584 36.4 181.032C36.8267 181.693 37.04 182.397 37.04 183.144C37.04 183.976 36.7947 184.765 36.304 185.512C35.8347 186.237 35.2373 186.877 34.512 187.432C33.7867 187.987 33.0507 188.413 32.304 188.712C31.6 188.989 30.8107 189.181 29.936 189.288C29.0827 189.395 28.3147 189.448 27.632 189.448C27.4187 189.448 27.2053 189.448 26.992 189.448C26.8 189.427 26.6293 189.405 26.48 189.384C26.4373 189.384 26.416 189.363 26.416 189.32C26.416 189.235 26.5013 189.117 26.672 188.968C26.8427 188.797 26.9813 188.723 27.088 188.744C27.2587 188.765 27.4293 188.776 27.6 188.776C27.7707 188.776 27.952 188.776 28.144 188.776C28.9547 188.776 29.8187 188.669 30.736 188.456C31.6533 188.243 32.496 187.837 33.264 187.24C34.0533 186.621 34.6507 185.725 35.056 184.552C35.1627 184.296 35.2267 184.04 35.248 183.784C35.2907 183.507 35.312 183.24 35.312 182.984C35.312 182.259 35.1307 181.619 34.768 181.064C34.4053 180.509 33.8827 180.189 33.2 180.104C33.1147 180.083 33.0187 180.072 32.912 180.072C32.8053 180.072 32.6987 180.072 32.592 180.072C32.1867 180.072 31.7387 180.125 31.248 180.232C30.7787 180.339 30.4267 180.541 30.192 180.84C29.6587 181.544 29.1467 182.344 28.656 183.24C28.1653 184.115 27.696 185.011 27.248 185.928C26.8 186.824 26.3733 187.667 25.968 188.456C25.8613 188.669 25.6587 189.053 25.36 189.608C25.0613 190.141 24.7307 190.76 24.368 191.464C24.0053 192.147 23.664 192.829 23.344 193.512C23.024 194.195 22.768 194.803 22.576 195.336C22.4053 195.869 22.3627 196.232 22.448 196.424C22.4693 196.445 22.48 196.477 22.48 196.52C22.48 196.584 22.448 196.616 22.384 196.616C22.2133 196.616 22.0427 196.573 21.872 196.488C21.7013 196.403 21.4987 196.36 21.264 196.36C21.0507 196.36 20.8373 196.413 20.624 196.52C20.4107 196.605 20.1333 196.765 19.792 197C19.4507 197.235 19.0667 197.427 18.64 197.576C18.5973 197.597 18.5333 197.608 18.448 197.608ZM43.0565 184.776C42.7578 184.776 42.5445 184.68 42.4165 184.488C42.3312 184.381 42.2885 184.243 42.2885 184.072C42.2885 183.731 42.4485 183.453 42.7685 183.24C43.0032 183.112 43.2165 183.048 43.4085 183.048C43.7285 183.048 43.9525 183.144 44.0805 183.336C44.1658 183.443 44.2085 183.581 44.2085 183.752C44.2085 184.093 44.0378 184.371 43.6965 184.584C43.5045 184.712 43.2912 184.776 43.0565 184.776ZM37.4885 197.096C37.2752 197.096 37.0938 197.053 36.9445 196.968C36.8165 196.883 36.7525 196.723 36.7525 196.488C36.7525 196.189 36.8272 195.837 36.9765 195.432C37.1472 195.027 37.3285 194.621 37.5205 194.216C37.7338 193.811 37.8938 193.48 38.0005 193.224C38.1498 192.925 38.3312 192.541 38.5445 192.072C38.7792 191.581 38.9925 191.123 39.1845 190.696C39.3978 190.248 39.5472 189.939 39.6325 189.768C39.3338 190.088 38.9712 190.493 38.5445 190.984C38.1392 191.453 37.7552 191.912 37.3925 192.36C37.0298 192.808 36.7525 193.16 36.5605 193.416C36.4965 193.501 36.4432 193.544 36.4005 193.544C36.3578 193.544 36.3365 193.491 36.3365 193.384C36.3365 193.213 36.3898 193.053 36.4965 192.904C36.9018 192.392 37.3498 191.816 37.8405 191.176C38.3525 190.536 38.8112 189.949 39.2165 189.416C39.6218 188.861 39.8778 188.499 39.9845 188.328C40.2192 188.285 40.5605 188.221 41.0085 188.136C41.4778 188.051 41.7978 187.933 41.9685 187.784C42.0325 187.72 42.0965 187.688 42.1605 187.688C42.2032 187.688 42.2245 187.731 42.2245 187.816C42.2458 187.88 42.2245 187.955 42.1605 188.04C42.0325 188.189 41.8085 188.552 41.4885 189.128C41.1685 189.704 40.8272 190.344 40.4645 191.048C40.1232 191.731 39.8032 192.349 39.5045 192.904C39.2058 193.48 38.9498 194.035 38.7365 194.568C38.5232 195.101 38.4165 195.485 38.4165 195.72C38.4165 196.019 38.5658 196.168 38.8645 196.168C39.1418 196.168 39.4938 195.997 39.9205 195.656C40.3685 195.315 40.8165 194.909 41.2645 194.44C41.7125 193.949 42.1072 193.501 42.4485 193.096C42.5552 192.968 42.6832 192.819 42.8325 192.648C43.0032 192.456 43.1098 192.339 43.1525 192.296C43.1952 192.339 43.2165 192.413 43.2165 192.52C43.1952 192.669 43.1418 192.819 43.0565 192.968C42.9712 193.096 42.8858 193.213 42.8005 193.32C42.3525 193.875 41.8618 194.451 41.3285 195.048C40.7952 195.624 40.2085 196.115 39.5685 196.52C38.9285 196.904 38.2352 197.096 37.4885 197.096ZM51.2288 201.064C50.9088 201.064 50.5888 200.968 50.2688 200.776C49.9488 200.605 49.5434 200.275 49.0528 199.784C48.5834 199.293 47.9221 198.568 47.0688 197.608C46.5994 197.053 46.1514 196.563 45.7248 196.136C45.3194 195.709 44.8181 195.496 44.2208 195.496C43.7514 195.496 43.2928 195.645 42.8448 195.944C42.3968 196.221 42.1088 196.595 41.9808 197.064C41.9594 197.192 41.9274 197.309 41.8848 197.416C41.8421 197.523 41.7888 197.629 41.7248 197.736C41.6608 197.843 41.5541 197.896 41.4047 197.896C41.2981 197.896 41.2021 197.853 41.1167 197.768C41.0101 197.683 40.9567 197.565 40.9567 197.416C40.9567 197.352 40.9994 197.235 41.0847 197.064C41.1914 196.872 41.3941 196.616 41.6928 196.296C41.9914 195.955 42.3221 195.592 42.6848 195.208C43.0474 194.824 43.3888 194.472 43.7088 194.152C44.0288 193.811 44.2848 193.565 44.4768 193.416C45.3514 192.669 46.1621 191.955 46.9088 191.272C47.6768 190.568 48.5088 189.853 49.4048 189.128C49.1274 189.128 48.7434 189.139 48.2528 189.16C47.7621 189.181 47.2394 189.213 46.6848 189.256C46.1514 189.299 45.6821 189.363 45.2768 189.448C44.8714 189.533 44.6154 189.651 44.5088 189.8C44.3594 189.992 44.2101 190.088 44.0608 190.088C43.9754 190.088 43.9328 190.056 43.9328 189.992C43.9328 189.928 43.9861 189.843 44.0928 189.736C44.2848 189.523 44.4341 189.32 44.5408 189.128C44.6474 188.915 44.7541 188.712 44.8608 188.52C45.0954 188.541 45.3301 188.563 45.5648 188.584C45.7994 188.584 46.0448 188.584 46.3008 188.584C46.9408 188.584 47.5914 188.573 48.2528 188.552C48.9354 188.509 49.5648 188.488 50.1408 188.488C50.3328 188.488 50.4821 188.627 50.5888 188.904C50.7168 189.16 50.7914 189.363 50.8128 189.512C50.0874 190.045 49.2768 190.632 48.3808 191.272C47.4848 191.891 46.6101 192.541 45.7568 193.224C45.3514 193.523 44.8821 193.917 44.3488 194.408C43.8368 194.877 43.3994 195.261 43.0368 195.56C43.6341 195.261 44.1888 195.112 44.7008 195.112C45.3834 195.112 45.9914 195.336 46.5248 195.784C47.0794 196.232 47.6768 196.765 48.3168 197.384C48.9568 198.024 49.5968 198.579 50.2368 199.048C50.8768 199.517 51.4208 199.752 51.8688 199.752C52.0181 199.731 52.1674 199.699 52.3168 199.656C52.4661 199.613 52.5941 199.549 52.7008 199.464C52.8714 199.315 52.9568 199.144 52.9568 198.952C52.9568 198.717 52.8608 198.472 52.6688 198.216C52.4768 197.981 52.3061 197.821 52.1568 197.736C52.1354 197.715 52.1248 197.693 52.1248 197.672C52.1248 197.608 52.1674 197.555 52.2528 197.512C52.3381 197.469 52.4234 197.469 52.5088 197.512C52.7861 197.661 53.0101 197.875 53.1808 198.152C53.3514 198.429 53.4368 198.739 53.4368 199.08C53.4368 199.421 53.3301 199.741 53.1168 200.04C52.9248 200.317 52.6581 200.552 52.3168 200.744C51.9754 200.957 51.6128 201.064 51.2288 201.064ZM58.7288 201.064C58.4088 201.064 58.0888 200.968 57.7688 200.776C57.4488 200.605 57.0434 200.275 56.5528 199.784C56.0834 199.293 55.4221 198.568 54.5688 197.608C54.0994 197.053 53.6514 196.563 53.2248 196.136C52.8194 195.709 52.3181 195.496 51.7208 195.496C51.2514 195.496 50.7928 195.645 50.3448 195.944C49.8968 196.221 49.6088 196.595 49.4808 197.064C49.4594 197.192 49.4274 197.309 49.3848 197.416C49.3421 197.523 49.2888 197.629 49.2248 197.736C49.1608 197.843 49.0541 197.896 48.9047 197.896C48.7981 197.896 48.7021 197.853 48.6167 197.768C48.5101 197.683 48.4567 197.565 48.4567 197.416C48.4567 197.352 48.4994 197.235 48.5847 197.064C48.6914 196.872 48.8941 196.616 49.1928 196.296C49.4914 195.955 49.8221 195.592 50.1848 195.208C50.5474 194.824 50.8888 194.472 51.2088 194.152C51.5288 193.811 51.7848 193.565 51.9768 193.416C52.8514 192.669 53.6621 191.955 54.4088 191.272C55.1768 190.568 56.0088 189.853 56.9048 189.128C56.6274 189.128 56.2434 189.139 55.7528 189.16C55.2621 189.181 54.7394 189.213 54.1848 189.256C53.6514 189.299 53.1821 189.363 52.7768 189.448C52.3714 189.533 52.1154 189.651 52.0088 189.8C51.8594 189.992 51.7101 190.088 51.5608 190.088C51.4754 190.088 51.4328 190.056 51.4328 189.992C51.4328 189.928 51.4861 189.843 51.5928 189.736C51.7848 189.523 51.9341 189.32 52.0408 189.128C52.1474 188.915 52.2541 188.712 52.3608 188.52C52.5954 188.541 52.8301 188.563 53.0648 188.584C53.2994 188.584 53.5448 188.584 53.8008 188.584C54.4408 188.584 55.0914 188.573 55.7528 188.552C56.4354 188.509 57.0648 188.488 57.6408 188.488C57.8328 188.488 57.9821 188.627 58.0888 188.904C58.2168 189.16 58.2914 189.363 58.3128 189.512C57.5874 190.045 56.7768 190.632 55.8808 191.272C54.9848 191.891 54.1101 192.541 53.2568 193.224C52.8514 193.523 52.3821 193.917 51.8488 194.408C51.3368 194.877 50.8994 195.261 50.5368 195.56C51.1341 195.261 51.6888 195.112 52.2008 195.112C52.8834 195.112 53.4914 195.336 54.0248 195.784C54.5794 196.232 55.1768 196.765 55.8168 197.384C56.4568 198.024 57.0968 198.579 57.7368 199.048C58.3768 199.517 58.9208 199.752 59.3688 199.752C59.5181 199.731 59.6674 199.699 59.8168 199.656C59.9661 199.613 60.0941 199.549 60.2008 199.464C60.3714 199.315 60.4568 199.144 60.4568 198.952C60.4568 198.717 60.3608 198.472 60.1688 198.216C59.9768 197.981 59.8061 197.821 59.6568 197.736C59.6354 197.715 59.6248 197.693 59.6248 197.672C59.6248 197.608 59.6674 197.555 59.7528 197.512C59.8381 197.469 59.9234 197.469 60.0088 197.512C60.2861 197.661 60.5101 197.875 60.6808 198.152C60.8514 198.429 60.9368 198.739 60.9368 199.08C60.9368 199.421 60.8301 199.741 60.6168 200.04C60.4248 200.317 60.1581 200.552 59.8168 200.744C59.4754 200.957 59.1128 201.064 58.7288 201.064ZM61.9088 197.096C61.6954 197.096 61.5141 197.053 61.3648 196.968C61.2154 196.883 61.1408 196.723 61.1408 196.488C61.1408 196.189 61.2154 195.848 61.3648 195.464C61.5141 195.08 61.6848 194.707 61.8768 194.344C62.0688 193.96 62.2394 193.651 62.3888 193.416C61.6421 194.205 60.8634 194.952 60.0528 195.656C59.6474 195.997 59.1994 196.317 58.7088 196.616C58.2181 196.915 57.6954 197.064 57.1408 197.064C56.9274 197.064 56.7781 197 56.6928 196.872C56.6074 196.723 56.5648 196.552 56.5648 196.36C56.5648 196.253 56.5754 196.179 56.5968 196.136C56.7034 195.304 56.9701 194.44 57.3968 193.544C57.8234 192.648 58.3461 191.805 58.9648 191.016C59.5834 190.227 60.2128 189.587 60.8528 189.096C61.5781 188.541 62.3781 188.264 63.2528 188.264H66.9328C67.0394 188.264 67.0928 188.307 67.0928 188.392C67.0928 188.563 66.9968 188.648 66.8048 188.648C66.5914 188.648 66.3781 188.787 66.1648 189.064C65.9514 189.32 65.7914 189.533 65.6848 189.704C65.5354 189.939 65.3008 190.333 64.9808 190.888C64.6608 191.443 64.3301 192.051 63.9888 192.712C63.6688 193.352 63.3914 193.949 63.1568 194.504C62.9221 195.059 62.8048 195.464 62.8048 195.72C62.8048 196.019 62.9541 196.168 63.2528 196.168C63.5728 196.168 63.9354 196.019 64.3408 195.72C64.7461 195.421 65.1514 195.059 65.5568 194.632C65.9834 194.184 66.3674 193.747 66.7088 193.32C67.0714 192.872 67.3594 192.52 67.5728 192.264C67.7008 192.392 67.6901 192.573 67.5408 192.808C67.4128 193.021 67.2954 193.192 67.1888 193.32C66.7621 193.875 66.2714 194.451 65.7168 195.048C65.1621 195.624 64.5541 196.115 63.8928 196.52C63.2528 196.904 62.5914 197.096 61.9088 197.096ZM58.4528 195.976C58.7088 195.976 59.0608 195.795 59.5088 195.432C59.9781 195.048 60.4794 194.579 61.0128 194.024C61.5461 193.448 62.0474 192.851 62.5168 192.232C62.9861 191.592 63.3701 191.016 63.6688 190.504C63.9888 189.971 64.1488 189.565 64.1488 189.288C64.1488 189.053 64.0741 188.893 63.9248 188.808C63.7968 188.723 63.6261 188.68 63.4128 188.68C63.0714 188.68 62.6981 188.808 62.2928 189.064C61.9088 189.299 61.5994 189.533 61.3648 189.768C61.1088 190.003 60.7994 190.376 60.4368 190.888C60.0954 191.379 59.7541 191.923 59.4128 192.52C59.0714 193.117 58.7834 193.693 58.5488 194.248C58.3141 194.803 58.1968 195.251 58.1968 195.592C58.1968 195.848 58.2821 195.976 58.4528 195.976ZM76.7213 197.096C76.5079 197.096 76.3266 197.053 76.1773 196.968C76.0279 196.883 75.9533 196.723 75.9533 196.488C75.9533 196.189 76.0279 195.848 76.1773 195.464C76.3266 195.08 76.4973 194.707 76.6893 194.344C76.8813 193.96 77.0519 193.651 77.2013 193.416C76.4546 194.205 75.6759 194.952 74.8653 195.656C74.4599 195.997 74.0119 196.317 73.5213 196.616C73.0306 196.915 72.5079 197.064 71.9533 197.064C71.7399 197.064 71.5906 197 71.5053 196.872C71.4199 196.723 71.3773 196.552 71.3773 196.36C71.3773 196.253 71.3879 196.179 71.4093 196.136C71.5159 195.304 71.7826 194.44 72.2093 193.544C72.6359 192.648 73.1586 191.805 73.7773 191.016C74.3959 190.227 75.0253 189.587 75.6653 189.096C76.3906 188.541 77.1906 188.264 78.0653 188.264H81.7453C81.8519 188.264 81.9053 188.307 81.9053 188.392C81.9053 188.563 81.8093 188.648 81.6173 188.648C81.4039 188.648 81.1906 188.787 80.9773 189.064C80.7639 189.32 80.6039 189.533 80.4973 189.704C80.3479 189.939 80.1133 190.333 79.7933 190.888C79.4733 191.443 79.1426 192.051 78.8013 192.712C78.4813 193.352 78.2039 193.949 77.9693 194.504C77.7346 195.059 77.6173 195.464 77.6173 195.72C77.6173 196.019 77.7666 196.168 78.0653 196.168C78.3853 196.168 78.7479 196.019 79.1533 195.72C79.5586 195.421 79.9639 195.059 80.3693 194.632C80.7959 194.184 81.1799 193.747 81.5213 193.32C81.8839 192.872 82.1719 192.52 82.3853 192.264C82.5133 192.392 82.5026 192.573 82.3533 192.808C82.2253 193.021 82.1079 193.192 82.0013 193.32C81.5746 193.875 81.0839 194.451 80.5293 195.048C79.9746 195.624 79.3666 196.115 78.7053 196.52C78.0653 196.904 77.4039 197.096 76.7213 197.096ZM73.2653 195.976C73.5213 195.976 73.8733 195.795 74.3213 195.432C74.7906 195.048 75.2919 194.579 75.8253 194.024C76.3586 193.448 76.8599 192.851 77.3293 192.232C77.7986 191.592 78.1826 191.016 78.4813 190.504C78.8013 189.971 78.9613 189.565 78.9613 189.288C78.9613 189.053 78.8866 188.893 78.7373 188.808C78.6093 188.723 78.4386 188.68 78.2253 188.68C77.8839 188.68 77.5106 188.808 77.1053 189.064C76.7213 189.299 76.4119 189.533 76.1773 189.768C75.9213 190.003 75.6119 190.376 75.2493 190.888C74.9079 191.379 74.5666 191.923 74.2253 192.52C73.8839 193.117 73.5959 193.693 73.3613 194.248C73.1266 194.803 73.0093 195.251 73.0093 195.592C73.0093 195.848 73.0946 195.976 73.2653 195.976ZM81.9675 197.48C81.8822 197.48 81.8822 197.384 81.9675 197.192C82.0742 197 82.1702 196.787 82.2555 196.552C82.3622 196.317 82.4688 196.061 82.5755 195.784C82.7888 195.272 83.0235 194.696 83.2795 194.056C83.5355 193.416 83.7808 192.797 84.0155 192.2C84.2502 191.581 84.4528 191.059 84.6235 190.632C84.8155 190.184 84.9435 189.896 85.0075 189.768C84.7088 190.088 84.3462 190.493 83.9195 190.984C83.5142 191.453 83.1302 191.912 82.7675 192.36C82.4048 192.808 82.1275 193.16 81.9355 193.416C81.8715 193.501 81.8182 193.544 81.7755 193.544C81.7328 193.544 81.7115 193.491 81.7115 193.384C81.7115 193.213 81.7648 193.053 81.8715 192.904C82.2768 192.392 82.7248 191.816 83.2155 191.176C83.7275 190.536 84.1862 189.949 84.5915 189.416C84.9968 188.861 85.2528 188.499 85.3595 188.328C85.5942 188.285 85.9355 188.221 86.3835 188.136C86.8528 188.051 87.1728 187.933 87.3435 187.784C87.4075 187.72 87.4715 187.688 87.5355 187.688C87.5782 187.688 87.5995 187.731 87.5995 187.816C87.6208 187.88 87.5995 187.955 87.5355 188.04C87.4075 188.189 87.1835 188.541 86.8635 189.096C86.5648 189.629 86.2342 190.227 85.8715 190.888C85.5302 191.549 85.2102 192.147 84.9115 192.68C85.1675 192.339 85.4448 192.008 85.7435 191.688C86.0422 191.368 86.3302 191.059 86.6075 190.76C86.8635 190.504 87.2155 190.184 87.6635 189.8C88.1115 189.416 88.5808 189.064 89.0715 188.744C89.5622 188.424 89.9888 188.243 90.3515 188.2C90.4368 188.179 90.5115 188.168 90.5755 188.168C90.6608 188.168 90.7248 188.168 90.7675 188.168C91.2368 188.168 91.4715 188.339 91.4715 188.68C91.4715 188.936 91.3328 189.277 91.0555 189.704C90.9062 189.939 90.6715 190.333 90.3515 190.888C90.0528 191.421 89.7435 192.008 89.4235 192.648C89.1248 193.267 88.8582 193.853 88.6235 194.408C88.4102 194.941 88.3035 195.336 88.3035 195.592C88.3035 195.891 88.4528 196.04 88.7515 196.04C89.1142 196.04 89.5088 195.859 89.9355 195.496C90.3835 195.133 90.8635 194.675 91.3755 194.12C91.8875 193.544 92.3995 192.936 92.9115 192.296C92.9542 192.339 92.9755 192.413 92.9755 192.52C92.9755 192.669 92.9222 192.819 92.8155 192.968C92.7302 193.096 92.6448 193.213 92.5595 193.32C92.3462 193.597 92.0582 193.949 91.6955 194.376C91.3542 194.781 91.0022 195.187 90.6395 195.592C90.2768 195.976 89.9462 196.285 89.6475 196.52C89.4342 196.669 89.1568 196.829 88.8155 197C88.4742 197.171 88.1328 197.256 87.7915 197.256C87.4075 197.256 87.1408 197.16 86.9915 196.968C86.8422 196.755 86.7675 196.499 86.7675 196.2C86.7675 195.859 86.8315 195.496 86.9595 195.112C87.0875 194.728 87.2262 194.365 87.3755 194.024C87.5462 193.661 87.6742 193.395 87.7595 193.224C88.1435 192.477 88.4955 191.773 88.8155 191.112C89.1355 190.451 89.3595 189.981 89.4875 189.704C89.5515 189.576 89.5835 189.469 89.5835 189.384C89.5835 189.235 89.4662 189.224 89.2315 189.352C88.9968 189.48 88.7088 189.672 88.3675 189.928C88.0475 190.184 87.7488 190.44 87.4715 190.696C87.1942 190.931 87.0128 191.091 86.9275 191.176C86.1382 192.008 85.4448 192.936 84.8475 193.96C84.2715 194.963 83.7808 195.997 83.3755 197.064C83.0982 197.085 82.8208 197.16 82.5435 197.288C82.2662 197.416 82.0742 197.48 81.9675 197.48ZM96.69 197.096C96.4767 197.096 96.2953 197.053 96.146 196.968C95.9967 196.883 95.922 196.723 95.922 196.488C95.922 196.189 95.9967 195.848 96.146 195.464C96.2953 195.08 96.466 194.707 96.658 194.344C96.85 193.96 97.0207 193.651 97.17 193.416C96.4233 194.205 95.6447 194.952 94.834 195.656C94.4287 195.997 93.9807 196.317 93.49 196.616C92.9993 196.915 92.4767 197.064 91.922 197.064C91.7087 197.064 91.5593 197 91.474 196.872C91.3887 196.723 91.346 196.552 91.346 196.36C91.346 196.253 91.3567 196.179 91.378 196.136C91.4847 195.304 91.7513 194.44 92.178 193.544C92.6047 192.648 93.1273 191.805 93.746 191.016C94.3647 190.227 94.994 189.587 95.634 189.096C96.1247 188.733 96.594 188.509 97.042 188.424C97.49 188.317 97.9807 188.264 98.514 188.264H99.57C99.9113 187.688 100.263 187.048 100.626 186.344C101.01 185.619 101.383 184.904 101.746 184.2C102.13 183.496 102.482 182.877 102.802 182.344C103.677 180.851 104.637 179.656 105.682 178.76C106.749 177.864 107.933 177.416 109.234 177.416C109.511 177.416 109.767 177.501 110.002 177.672C110.237 177.821 110.343 178.056 110.322 178.376L110.258 179.528C110.258 179.549 110.237 179.581 110.194 179.624C110.151 179.645 110.119 179.656 110.098 179.656C110.077 179.656 110.045 179.635 110.002 179.592C109.938 179.208 109.746 178.92 109.426 178.728C109.106 178.515 108.711 178.408 108.242 178.408C108.093 178.408 107.922 178.419 107.73 178.44C107.559 178.461 107.389 178.504 107.218 178.568C106.621 178.781 106.055 179.219 105.522 179.88C104.989 180.52 104.413 181.373 103.794 182.44C103.581 182.845 103.303 183.379 102.962 184.04C102.621 184.68 102.258 185.373 101.874 186.12C101.511 186.867 101.159 187.592 100.818 188.296C100.498 189 100.221 189.597 99.986 190.088C99.8793 190.344 99.698 190.739 99.442 191.272C99.186 191.784 98.9087 192.349 98.61 192.968C98.3327 193.565 98.0873 194.12 97.874 194.632C97.682 195.144 97.586 195.507 97.586 195.72C97.586 196.019 97.714 196.168 97.97 196.168C98.226 196.168 98.5673 196.019 98.994 195.72C99.4207 195.4 99.858 195.016 100.306 194.568C100.775 194.099 101.191 193.651 101.554 193.224C101.938 192.797 102.205 192.477 102.354 192.264C102.418 192.328 102.45 192.403 102.45 192.488C102.45 192.637 102.386 192.787 102.258 192.936C102.151 193.085 102.055 193.213 101.97 193.32C101.586 193.832 101.106 194.387 100.53 194.984C99.9753 195.56 99.3673 196.061 98.706 196.488C98.0447 196.893 97.3727 197.096 96.69 197.096ZM93.234 195.976C93.49 195.976 93.842 195.795 94.29 195.432C94.7593 195.048 95.2607 194.579 95.794 194.024C96.3273 193.448 96.8287 192.851 97.298 192.232C97.7673 191.592 98.1513 191.016 98.45 190.504C98.77 189.971 98.93 189.565 98.93 189.288C98.93 189.053 98.8553 188.893 98.706 188.808C98.578 188.723 98.4073 188.68 98.194 188.68C97.8527 188.68 97.4793 188.808 97.074 189.064C96.69 189.299 96.3807 189.533 96.146 189.768C95.89 190.003 95.5807 190.376 95.218 190.888C94.8767 191.379 94.5353 191.923 94.194 192.52C93.8527 193.117 93.5647 193.693 93.33 194.248C93.0953 194.803 92.978 195.251 92.978 195.592C92.978 195.848 93.0633 195.976 93.234 195.976ZM121.167 197.736C120.633 197.736 120.089 197.565 119.535 197.224C119.001 196.904 118.457 196.381 117.903 195.656C117.22 194.717 116.644 193.821 116.175 192.968C115.705 192.115 115.321 191.368 115.023 190.728C114.745 190.088 114.532 189.629 114.383 189.352C114.383 189.352 114.436 189.288 114.543 189.16C114.649 189.011 114.777 188.872 114.927 188.744C115.097 188.595 115.236 188.52 115.343 188.52C116.345 188.52 117.241 188.509 118.031 188.488C118.841 188.445 119.556 188.317 120.175 188.104C120.815 187.869 121.38 187.475 121.871 186.92C122.361 186.365 122.777 185.576 123.119 184.552C123.225 184.296 123.289 184.04 123.311 183.784C123.353 183.507 123.375 183.24 123.375 182.984C123.375 182.259 123.193 181.619 122.831 181.064C122.468 180.509 121.945 180.189 121.263 180.104C121.177 180.083 121.081 180.072 120.975 180.072C120.868 180.072 120.761 180.072 120.655 180.072C120.249 180.072 119.801 180.125 119.311 180.232C118.841 180.339 118.489 180.541 118.255 180.84C117.721 181.544 117.209 182.344 116.719 183.24C116.228 184.115 115.759 185.011 115.311 185.928C114.863 186.824 114.436 187.667 114.031 188.456C113.924 188.669 113.721 189.053 113.423 189.608C113.124 190.141 112.793 190.76 112.431 191.464C112.068 192.147 111.727 192.829 111.407 193.512C111.087 194.195 110.831 194.803 110.639 195.336C110.468 195.869 110.425 196.232 110.511 196.424C110.532 196.445 110.543 196.477 110.543 196.52C110.543 196.584 110.511 196.616 110.447 196.616C110.276 196.616 110.105 196.573 109.935 196.488C109.764 196.403 109.561 196.36 109.327 196.36C109.113 196.36 108.9 196.413 108.687 196.52C108.473 196.605 108.196 196.765 107.855 197C107.513 197.235 107.129 197.427 106.703 197.576C106.66 197.597 106.596 197.608 106.511 197.608C106.361 197.608 106.244 197.565 106.159 197.48C106.073 197.416 106.073 197.363 106.159 197.32C106.628 197.235 107.033 197.064 107.375 196.808C107.716 196.531 107.993 196.189 108.207 195.784C108.655 195.037 109.092 194.291 109.519 193.544C109.967 192.776 110.393 192.008 110.799 191.24C111.289 190.301 111.791 189.363 112.303 188.424C112.815 187.464 113.327 186.515 113.839 185.576C114.329 184.701 114.767 183.859 115.151 183.048C115.535 182.237 115.823 181.651 116.015 181.288C116.164 181.011 116.42 180.765 116.783 180.552C117.167 180.317 117.54 180.136 117.903 180.008C117.775 180.008 117.647 180.008 117.519 180.008C117.391 179.987 117.252 179.976 117.103 179.976C116.441 179.976 115.716 180.019 114.927 180.104C114.159 180.168 113.401 180.275 112.655 180.424C111.929 180.573 111.289 180.776 110.735 181.032C110.18 181.288 109.807 181.597 109.615 181.96C109.529 182.152 109.455 182.344 109.391 182.536C109.327 182.728 109.295 182.92 109.295 183.112C109.295 183.603 109.465 183.955 109.807 184.168C109.828 184.168 109.839 184.189 109.839 184.232C109.839 184.275 109.796 184.317 109.711 184.36C109.647 184.403 109.593 184.413 109.551 184.392C109.337 184.285 109.092 184.029 108.815 183.624C108.559 183.197 108.388 182.845 108.303 182.568C108.239 182.312 108.207 182.077 108.207 181.864C108.207 181.309 108.388 180.883 108.751 180.584C109.113 180.264 109.572 180.04 110.127 179.912C110.681 179.763 111.247 179.677 111.823 179.656C112.42 179.613 112.943 179.592 113.391 179.592C114.073 179.592 114.884 179.592 115.823 179.592C116.761 179.571 117.625 179.56 118.415 179.56C118.607 179.56 118.82 179.56 119.055 179.56C119.289 179.539 119.535 179.528 119.791 179.528C120.367 179.528 120.964 179.56 121.583 179.624C122.201 179.688 122.767 179.827 123.279 180.04C123.791 180.253 124.185 180.584 124.463 181.032C124.825 181.629 125.007 182.312 125.007 183.08C125.007 184.253 124.697 185.235 124.079 186.024C123.865 186.301 123.631 186.568 123.375 186.824C123.119 187.08 122.82 187.325 122.479 187.56C121.924 187.944 121.263 188.275 120.495 188.552C119.727 188.808 118.927 189 118.095 189.128C117.284 189.256 116.537 189.341 115.855 189.384C116.132 189.981 116.548 190.781 117.103 191.784C117.679 192.787 118.372 193.789 119.183 194.792C119.609 195.325 120.047 195.699 120.495 195.912C120.943 196.125 121.38 196.232 121.807 196.232C122.489 196.232 123.129 196.029 123.727 195.624C124.345 195.219 124.9 194.749 125.391 194.216C125.903 193.661 126.308 193.181 126.607 192.776C126.671 192.669 126.724 192.616 126.767 192.616C126.831 192.616 126.863 192.68 126.863 192.808C126.863 192.979 126.799 193.149 126.671 193.32C125.689 194.664 124.751 195.741 123.855 196.552C122.959 197.341 122.063 197.736 121.167 197.736ZM128.225 197.256C127.35 197.256 126.742 197.085 126.401 196.744C126.059 196.403 125.889 195.987 125.889 195.496C125.889 194.877 126.049 194.216 126.368 193.512C126.71 192.808 127.03 192.211 127.329 191.72C127.67 191.208 128.129 190.675 128.705 190.12C129.281 189.565 129.91 189.096 130.593 188.712C131.275 188.328 131.937 188.136 132.577 188.136C133.131 188.136 133.515 188.275 133.729 188.552C133.942 188.808 134.049 189.117 134.049 189.48C134.049 190.141 133.846 190.685 133.441 191.112C133.057 191.539 132.577 191.891 132.001 192.168C131.425 192.424 130.87 192.637 130.337 192.808C130.017 192.893 129.643 192.979 129.217 193.064C128.79 193.149 128.385 193.192 128.001 193.192C127.851 193.576 127.734 193.949 127.649 194.312C127.563 194.675 127.521 195.005 127.521 195.304C127.521 195.667 127.606 195.965 127.777 196.2C127.969 196.435 128.278 196.552 128.705 196.552C128.875 196.552 129.078 196.531 129.312 196.488C129.547 196.445 129.803 196.381 130.081 196.296C130.721 196.083 131.35 195.741 131.969 195.272C132.587 194.803 133.153 194.301 133.665 193.768C134.198 193.213 134.603 192.755 134.881 192.392C134.945 192.456 134.977 192.531 134.977 192.616C134.977 192.723 134.902 192.893 134.753 193.128C134.326 193.725 133.771 194.344 133.089 194.984C132.406 195.624 131.649 196.168 130.817 196.616C129.985 197.043 129.121 197.256 128.225 197.256ZM128.257 192.552C128.534 192.573 128.843 192.573 129.185 192.552C129.547 192.509 129.899 192.435 130.241 192.328C131.115 192.072 131.745 191.667 132.129 191.112C132.534 190.536 132.737 190.024 132.737 189.576C132.737 189.32 132.683 189.107 132.577 188.936C132.47 188.765 132.299 188.68 132.065 188.68C131.446 188.68 130.891 188.915 130.401 189.384C129.91 189.832 129.483 190.355 129.121 190.952C128.758 191.549 128.47 192.083 128.257 192.552ZM136.289 197.512C135.905 197.512 135.5 197.459 135.073 197.352C134.647 197.245 134.263 197.075 133.921 196.84C133.601 196.584 133.388 196.243 133.281 195.816C133.26 195.752 133.249 195.656 133.249 195.528C133.249 195.229 133.313 194.899 133.441 194.536C133.591 194.173 133.772 193.917 133.985 193.768C134.071 193.725 134.135 193.725 134.177 193.768C134.241 193.811 134.252 193.853 134.209 193.896C134.188 193.96 134.156 194.045 134.113 194.152C134.071 194.237 134.039 194.333 134.017 194.44C133.953 194.995 134.071 195.485 134.369 195.912C134.497 196.083 134.647 196.243 134.817 196.392C135.009 196.541 135.191 196.669 135.361 196.776C135.511 196.861 135.692 196.925 135.905 196.968C136.119 196.989 136.332 197 136.545 197C136.887 197 137.217 196.957 137.537 196.872C137.857 196.787 138.092 196.648 138.241 196.456C138.519 196.115 138.657 195.731 138.657 195.304C138.657 194.984 138.572 194.643 138.401 194.28C138.231 193.917 137.964 193.533 137.601 193.128C137.367 192.872 137.143 192.595 136.929 192.296C136.716 191.997 136.577 191.677 136.513 191.336C136.492 191.272 136.471 191.208 136.449 191.144C136.449 191.08 136.449 191.016 136.449 190.952C136.172 191.357 135.884 191.741 135.585 192.104C135.308 192.445 135.063 192.744 134.849 193C134.764 193.128 134.689 193.192 134.625 193.192C134.583 193.192 134.561 193.149 134.561 193.064C134.561 192.872 134.647 192.669 134.817 192.456C134.988 192.264 135.18 192.029 135.393 191.752C135.607 191.453 135.777 191.219 135.905 191.048C136.268 190.515 136.535 190.099 136.705 189.8C136.897 189.48 137.1 189.192 137.313 188.936C137.548 188.659 137.836 188.435 138.177 188.264C138.54 188.093 138.913 188.008 139.297 188.008C139.745 188.008 140.151 188.083 140.513 188.232C140.897 188.36 141.1 188.701 141.121 189.256C141.121 189.512 141.068 189.779 140.961 190.056C140.876 190.312 140.78 190.557 140.673 190.792C140.609 190.92 140.513 191.016 140.385 191.08C140.279 191.123 140.225 191.101 140.225 191.016C140.225 190.931 140.236 190.835 140.257 190.728C140.279 190.621 140.289 190.525 140.289 190.44C140.289 190.077 140.225 189.757 140.097 189.48C139.991 189.181 139.831 188.968 139.617 188.84C139.404 188.691 139.18 188.616 138.945 188.616C138.604 188.616 138.273 188.755 137.953 189.032C137.633 189.288 137.473 189.629 137.473 190.056C137.473 190.099 137.473 190.152 137.473 190.216C137.473 190.28 137.484 190.333 137.505 190.376C137.591 190.717 137.847 191.101 138.273 191.528C138.7 191.955 139.031 192.328 139.265 192.648C139.671 193.203 139.873 193.768 139.873 194.344C139.873 194.92 139.703 195.453 139.361 195.944C139.041 196.413 138.604 196.787 138.049 197.064C137.516 197.363 136.929 197.512 136.289 197.512ZM143.087 197.096C142.873 197.096 142.692 197.053 142.543 196.968C142.393 196.883 142.319 196.723 142.319 196.488C142.319 196.189 142.393 195.837 142.543 195.432C142.713 195.027 142.895 194.621 143.087 194.216C143.279 193.811 143.439 193.48 143.567 193.224C143.673 193.032 143.812 192.733 143.983 192.328C144.175 191.901 144.367 191.464 144.559 191.016C144.772 190.547 144.943 190.152 145.071 189.832C145.22 189.512 145.295 189.352 145.295 189.352C145.103 189.565 144.847 189.864 144.527 190.248C144.228 190.632 143.897 191.037 143.535 191.464C143.193 191.869 142.873 192.253 142.575 192.616C142.297 192.979 142.095 193.245 141.967 193.416C141.903 193.501 141.849 193.544 141.807 193.544C141.764 193.544 141.743 193.491 141.743 193.384C141.743 193.213 141.796 193.053 141.903 192.904C142.159 192.584 142.468 192.2 142.831 191.752C143.193 191.283 143.556 190.813 143.919 190.344C144.303 189.875 144.633 189.459 144.911 189.096C144.74 189.096 144.516 189.107 144.239 189.128C143.983 189.149 143.748 189.181 143.535 189.224C143.321 189.245 143.204 189.256 143.183 189.256C143.076 189.256 143.087 189.171 143.215 189C143.343 188.829 143.513 188.659 143.727 188.488C143.94 188.317 144.1 188.232 144.207 188.232C144.228 188.232 144.399 188.243 144.719 188.264C145.039 188.264 145.273 188.264 145.423 188.264C145.849 187.688 146.265 187.027 146.671 186.28C147.097 185.533 147.513 184.712 147.919 183.816C148.089 183.795 148.377 183.677 148.783 183.464C149.209 183.229 149.54 182.995 149.775 182.76C149.881 182.653 149.967 182.6 150.031 182.6C150.159 182.6 150.159 182.685 150.031 182.856C149.881 183.027 149.625 183.389 149.263 183.944C148.9 184.477 148.495 185.128 148.047 185.896C147.599 186.643 147.172 187.432 146.767 188.264H149.359C149.593 188.264 149.711 188.296 149.711 188.36C149.711 188.445 149.551 188.531 149.231 188.616C148.868 188.723 148.484 188.787 148.079 188.808C147.695 188.829 147.332 188.872 146.991 188.936C146.671 189 146.436 189.139 146.287 189.352C146.159 189.501 145.977 189.821 145.743 190.312C145.508 190.803 145.252 191.368 144.975 192.008C144.719 192.627 144.495 193.256 144.303 193.896C144.111 194.515 143.993 195.037 143.951 195.464V195.592C143.951 195.763 144.004 195.901 144.111 196.008C144.217 196.115 144.324 196.168 144.431 196.168C144.708 196.168 145.06 195.997 145.487 195.656C145.935 195.315 146.393 194.909 146.863 194.44C147.332 193.949 147.737 193.501 148.079 193.096C148.228 192.925 148.356 192.765 148.463 192.616C148.591 192.467 148.665 192.371 148.687 192.328C148.729 192.413 148.751 192.477 148.751 192.52C148.751 192.648 148.708 192.787 148.623 192.936C148.559 193.085 148.484 193.213 148.399 193.32C147.993 193.853 147.503 194.419 146.927 195.016C146.351 195.592 145.732 196.083 145.071 196.488C144.431 196.893 143.769 197.096 143.087 197.096ZM152.503 197.096C152.289 197.096 152.108 197.053 151.959 196.968C151.809 196.883 151.735 196.723 151.735 196.488C151.735 196.189 151.809 195.848 151.959 195.464C152.108 195.08 152.279 194.707 152.471 194.344C152.663 193.96 152.833 193.651 152.983 193.416C152.236 194.205 151.457 194.952 150.647 195.656C150.241 195.997 149.793 196.317 149.303 196.616C148.812 196.915 148.289 197.064 147.735 197.064C147.521 197.064 147.372 197 147.287 196.872C147.201 196.723 147.159 196.552 147.159 196.36C147.159 196.253 147.169 196.179 147.191 196.136C147.297 195.304 147.564 194.44 147.991 193.544C148.417 192.648 148.94 191.805 149.559 191.016C150.177 190.227 150.807 189.587 151.447 189.096C152.172 188.541 152.972 188.264 153.847 188.264H157.527C157.633 188.264 157.687 188.307 157.687 188.392C157.687 188.563 157.591 188.648 157.399 188.648C157.185 188.648 156.972 188.787 156.759 189.064C156.545 189.32 156.385 189.533 156.279 189.704C156.129 189.939 155.895 190.333 155.575 190.888C155.255 191.443 154.924 192.051 154.583 192.712C154.263 193.352 153.985 193.949 153.751 194.504C153.516 195.059 153.399 195.464 153.399 195.72C153.399 196.019 153.548 196.168 153.847 196.168C154.167 196.168 154.529 196.019 154.935 195.72C155.34 195.421 155.745 195.059 156.151 194.632C156.577 194.184 156.961 193.747 157.303 193.32C157.665 192.872 157.953 192.52 158.167 192.264C158.295 192.392 158.284 192.573 158.135 192.808C158.007 193.021 157.889 193.192 157.783 193.32C157.356 193.875 156.865 194.451 156.311 195.048C155.756 195.624 155.148 196.115 154.487 196.52C153.847 196.904 153.185 197.096 152.503 197.096ZM149.047 195.976C149.303 195.976 149.655 195.795 150.103 195.432C150.572 195.048 151.073 194.579 151.607 194.024C152.14 193.448 152.641 192.851 153.111 192.232C153.58 191.592 153.964 191.016 154.263 190.504C154.583 189.971 154.743 189.565 154.743 189.288C154.743 189.053 154.668 188.893 154.519 188.808C154.391 188.723 154.22 188.68 154.007 188.68C153.665 188.68 153.292 188.808 152.887 189.064C152.503 189.299 152.193 189.533 151.959 189.768C151.703 190.003 151.393 190.376 151.031 190.888C150.689 191.379 150.348 191.923 150.007 192.52C149.665 193.117 149.377 193.693 149.143 194.248C148.908 194.803 148.791 195.251 148.791 195.592C148.791 195.848 148.876 195.976 149.047 195.976ZM159.349 197.096C159.135 197.096 158.954 197.053 158.805 196.968C158.655 196.883 158.581 196.723 158.581 196.488C158.581 196.189 158.655 195.837 158.805 195.432C158.975 195.027 159.157 194.621 159.349 194.216C159.541 193.811 159.701 193.48 159.829 193.224C160.085 192.733 160.33 192.243 160.565 191.752C160.799 191.261 161.002 190.845 161.173 190.504C161.343 190.184 161.429 189.971 161.429 189.864C161.429 189.693 161.301 189.693 161.045 189.864C160.81 190.035 160.586 190.205 160.373 190.376C159.903 190.824 159.413 191.357 158.901 191.976C158.389 192.573 157.994 193.053 157.717 193.416C157.653 193.501 157.599 193.544 157.557 193.544C157.514 193.544 157.493 193.491 157.493 193.384C157.493 193.213 157.546 193.053 157.653 192.904C157.951 192.477 158.303 192.008 158.709 191.496C159.114 190.984 159.53 190.493 159.957 190.024C160.362 189.597 160.778 189.181 161.205 188.776C161.631 188.371 162.175 188.168 162.837 188.168C163.285 188.168 163.509 188.339 163.509 188.68C163.509 188.979 163.381 189.32 163.125 189.704C162.975 189.939 162.741 190.333 162.421 190.888C162.101 191.443 161.77 192.051 161.429 192.712C161.109 193.352 160.831 193.949 160.597 194.504C160.362 195.059 160.245 195.464 160.245 195.72C160.245 196.019 160.394 196.168 160.693 196.168C160.927 196.168 161.215 196.051 161.557 195.816C161.898 195.56 162.25 195.261 162.613 194.92C163.274 194.28 163.871 193.587 164.405 192.84C164.959 192.072 165.429 191.336 165.813 190.632C166.218 189.928 166.538 189.352 166.773 188.904C166.815 188.819 166.858 188.723 166.901 188.616C166.965 188.488 167.061 188.413 167.189 188.392C167.317 188.371 167.594 188.36 168.021 188.36C168.447 188.36 168.842 188.275 169.205 188.104H169.269C169.333 188.104 169.365 188.136 169.365 188.2C169.365 188.371 169.226 188.499 168.949 188.584C168.693 188.669 168.394 188.925 168.053 189.352C167.733 189.779 167.413 190.301 167.093 190.92C166.773 191.517 166.485 192.136 166.229 192.776C165.973 193.416 165.781 194.003 165.653 194.536C165.525 195.069 165.493 195.464 165.557 195.72C165.642 196.019 165.791 196.168 166.005 196.168C166.282 196.168 166.666 195.997 167.157 195.656C167.669 195.315 168.191 194.909 168.725 194.44C169.258 193.949 169.695 193.501 170.037 193.096C170.186 192.925 170.325 192.755 170.453 192.584C170.581 192.413 170.666 192.307 170.709 192.264C170.73 192.285 170.751 192.328 170.773 192.392C170.794 192.435 170.805 192.477 170.805 192.52C170.783 192.669 170.73 192.819 170.645 192.968C170.559 193.096 170.463 193.213 170.357 193.32C169.951 193.853 169.461 194.419 168.885 195.016C168.33 195.592 167.722 196.083 167.061 196.488C166.421 196.893 165.759 197.096 165.077 197.096C164.863 197.096 164.618 197.043 164.341 196.936C164.085 196.829 163.957 196.595 163.957 196.232C163.957 195.955 164.031 195.581 164.181 195.112C164.33 194.621 164.49 194.141 164.661 193.672C164.853 193.181 165.013 192.819 165.141 192.584C164.863 192.989 164.522 193.448 164.117 193.96C163.733 194.451 163.338 194.888 162.933 195.272C162.399 195.784 161.823 196.221 161.205 196.584C160.607 196.925 159.989 197.096 159.349 197.096ZM170.311 197.448C170.226 197.448 170.226 197.363 170.311 197.192C170.418 197 170.514 196.787 170.599 196.552C170.706 196.317 170.813 196.061 170.919 195.784C171.133 195.272 171.367 194.696 171.623 194.056C171.879 193.416 172.125 192.797 172.359 192.2C172.594 191.581 172.797 191.059 172.967 190.632C173.159 190.184 173.287 189.896 173.351 189.768C173.053 190.088 172.69 190.493 172.263 190.984C171.858 191.453 171.474 191.912 171.111 192.36C170.749 192.808 170.471 193.16 170.279 193.416C170.215 193.501 170.162 193.544 170.119 193.544C170.077 193.544 170.055 193.491 170.055 193.384C170.055 193.213 170.109 193.053 170.215 192.904C170.621 192.392 171.069 191.816 171.559 191.176C172.071 190.536 172.53 189.949 172.935 189.416C173.341 188.861 173.597 188.499 173.703 188.328C173.938 188.285 174.279 188.221 174.727 188.136C175.197 188.051 175.517 187.933 175.687 187.784C175.751 187.72 175.815 187.688 175.879 187.688C175.922 187.688 175.943 187.731 175.943 187.816C175.965 187.88 175.943 187.955 175.879 188.04C175.751 188.168 175.559 188.445 175.303 188.872C175.069 189.299 174.802 189.789 174.503 190.344C174.205 190.899 173.917 191.432 173.639 191.944C173.853 191.624 174.13 191.251 174.471 190.824C174.834 190.376 175.229 189.949 175.655 189.544C176.082 189.117 176.509 188.765 176.935 188.488C177.383 188.211 177.799 188.072 178.183 188.072C178.461 188.072 178.695 188.136 178.887 188.264C179.079 188.371 179.229 188.573 179.335 188.872C179.399 189.021 179.431 189.192 179.431 189.384C179.431 189.747 179.335 190.099 179.143 190.44C178.973 190.76 178.845 191.005 178.759 191.176C178.738 191.24 178.663 191.304 178.535 191.368C178.407 191.411 178.354 191.389 178.375 191.304C178.397 191.197 178.407 191.091 178.407 190.984C178.429 190.877 178.439 190.76 178.439 190.632C178.439 190.269 178.365 189.939 178.215 189.64C178.087 189.341 177.842 189.192 177.479 189.192C177.138 189.192 176.722 189.405 176.231 189.832C175.741 190.259 175.25 190.749 174.759 191.304C174.141 192.029 173.65 192.723 173.287 193.384C172.925 194.024 172.626 194.653 172.391 195.272C172.263 195.613 172.135 195.955 172.007 196.296C171.879 196.616 171.783 196.872 171.719 197.064C171.442 197.085 171.165 197.149 170.887 197.256C170.61 197.384 170.418 197.448 170.311 197.448ZM183.19 197.096C182.977 197.096 182.795 197.053 182.646 196.968C182.497 196.883 182.422 196.723 182.422 196.488C182.422 196.189 182.497 195.848 182.646 195.464C182.795 195.08 182.966 194.707 183.158 194.344C183.35 193.96 183.521 193.651 183.67 193.416C182.923 194.205 182.145 194.952 181.334 195.656C180.929 195.997 180.481 196.317 179.99 196.616C179.499 196.915 178.977 197.064 178.422 197.064C178.209 197.064 178.059 197 177.974 196.872C177.889 196.723 177.846 196.552 177.846 196.36C177.846 196.253 177.857 196.179 177.878 196.136C177.985 195.304 178.251 194.44 178.678 193.544C179.105 192.648 179.627 191.805 180.246 191.016C180.865 190.227 181.494 189.587 182.134 189.096C182.859 188.541 183.659 188.264 184.534 188.264H188.214C188.321 188.264 188.374 188.307 188.374 188.392C188.374 188.563 188.278 188.648 188.086 188.648C187.873 188.648 187.659 188.787 187.446 189.064C187.233 189.32 187.073 189.533 186.966 189.704C186.817 189.939 186.582 190.333 186.262 190.888C185.942 191.443 185.611 192.051 185.27 192.712C184.95 193.352 184.673 193.949 184.438 194.504C184.203 195.059 184.086 195.464 184.086 195.72C184.086 196.019 184.235 196.168 184.534 196.168C184.854 196.168 185.217 196.019 185.622 195.72C186.027 195.421 186.433 195.059 186.838 194.632C187.265 194.184 187.649 193.747 187.99 193.32C188.353 192.872 188.641 192.52 188.854 192.264C188.982 192.392 188.971 192.573 188.822 192.808C188.694 193.021 188.577 193.192 188.47 193.32C188.043 193.875 187.553 194.451 186.998 195.048C186.443 195.624 185.835 196.115 185.174 196.52C184.534 196.904 183.873 197.096 183.19 197.096ZM179.734 195.976C179.99 195.976 180.342 195.795 180.79 195.432C181.259 195.048 181.761 194.579 182.294 194.024C182.827 193.448 183.329 192.851 183.798 192.232C184.267 191.592 184.651 191.016 184.95 190.504C185.27 189.971 185.43 189.565 185.43 189.288C185.43 189.053 185.355 188.893 185.206 188.808C185.078 188.723 184.907 188.68 184.694 188.68C184.353 188.68 183.979 188.808 183.574 189.064C183.19 189.299 182.881 189.533 182.646 189.768C182.39 190.003 182.081 190.376 181.718 190.888C181.377 191.379 181.035 191.923 180.694 192.52C180.353 193.117 180.065 193.693 179.83 194.248C179.595 194.803 179.478 195.251 179.478 195.592C179.478 195.848 179.563 195.976 179.734 195.976ZM188.436 197.48C188.351 197.48 188.351 197.384 188.436 197.192C188.543 197 188.639 196.787 188.724 196.552C188.831 196.317 188.938 196.061 189.044 195.784C189.258 195.272 189.492 194.696 189.748 194.056C190.004 193.416 190.25 192.797 190.484 192.2C190.719 191.581 190.922 191.059 191.092 190.632C191.284 190.184 191.412 189.896 191.476 189.768C191.178 190.088 190.815 190.493 190.388 190.984C189.983 191.453 189.599 191.912 189.236 192.36C188.874 192.808 188.596 193.16 188.404 193.416C188.34 193.501 188.287 193.544 188.244 193.544C188.202 193.544 188.18 193.491 188.18 193.384C188.18 193.213 188.234 193.053 188.34 192.904C188.746 192.392 189.194 191.816 189.684 191.176C190.196 190.536 190.655 189.949 191.06 189.416C191.466 188.861 191.722 188.499 191.828 188.328C192.063 188.285 192.404 188.221 192.852 188.136C193.322 188.051 193.642 187.933 193.812 187.784C193.876 187.72 193.94 187.688 194.004 187.688C194.047 187.688 194.068 187.731 194.068 187.816C194.09 187.88 194.068 187.955 194.004 188.04C193.876 188.189 193.652 188.541 193.332 189.096C193.034 189.629 192.703 190.227 192.34 190.888C191.999 191.549 191.679 192.147 191.38 192.68C191.636 192.339 191.914 192.008 192.212 191.688C192.511 191.368 192.799 191.059 193.076 190.76C193.332 190.504 193.684 190.184 194.132 189.8C194.58 189.416 195.05 189.064 195.54 188.744C196.031 188.424 196.458 188.243 196.82 188.2C196.906 188.179 196.98 188.168 197.044 188.168C197.13 188.168 197.194 188.168 197.236 188.168C197.706 188.168 197.94 188.339 197.94 188.68C197.94 188.936 197.802 189.277 197.524 189.704C197.375 189.939 197.14 190.333 196.82 190.888C196.522 191.421 196.212 192.008 195.892 192.648C195.594 193.267 195.327 193.853 195.092 194.408C194.879 194.941 194.772 195.336 194.772 195.592C194.772 195.891 194.922 196.04 195.22 196.04C195.583 196.04 195.978 195.859 196.404 195.496C196.852 195.133 197.332 194.675 197.844 194.12C198.356 193.544 198.868 192.936 199.38 192.296C199.423 192.339 199.444 192.413 199.444 192.52C199.444 192.669 199.391 192.819 199.284 192.968C199.199 193.096 199.114 193.213 199.028 193.32C198.815 193.597 198.527 193.949 198.164 194.376C197.823 194.781 197.471 195.187 197.108 195.592C196.746 195.976 196.415 196.285 196.116 196.52C195.903 196.669 195.626 196.829 195.284 197C194.943 197.171 194.602 197.256 194.26 197.256C193.876 197.256 193.61 197.16 193.46 196.968C193.311 196.755 193.236 196.499 193.236 196.2C193.236 195.859 193.3 195.496 193.428 195.112C193.556 194.728 193.695 194.365 193.844 194.024C194.015 193.661 194.143 193.395 194.228 193.224C194.612 192.477 194.964 191.773 195.284 191.112C195.604 190.451 195.828 189.981 195.956 189.704C196.02 189.576 196.052 189.469 196.052 189.384C196.052 189.235 195.935 189.224 195.7 189.352C195.466 189.48 195.178 189.672 194.836 189.928C194.516 190.184 194.218 190.44 193.94 190.696C193.663 190.931 193.482 191.091 193.396 191.176C192.607 192.008 191.914 192.936 191.316 193.96C190.74 194.963 190.25 195.997 189.844 197.064C189.567 197.085 189.29 197.16 189.012 197.288C188.735 197.416 188.543 197.48 188.436 197.48ZM200.087 197.096C199.873 197.096 199.692 197.053 199.543 196.968C199.393 196.883 199.319 196.723 199.319 196.488C199.319 196.189 199.393 195.837 199.543 195.432C199.713 195.027 199.895 194.621 200.087 194.216C200.279 193.811 200.439 193.48 200.567 193.224C200.673 193.032 200.812 192.733 200.983 192.328C201.175 191.901 201.367 191.464 201.559 191.016C201.772 190.547 201.943 190.152 202.071 189.832C202.22 189.512 202.295 189.352 202.295 189.352C202.103 189.565 201.847 189.864 201.527 190.248C201.228 190.632 200.897 191.037 200.535 191.464C200.193 191.869 199.873 192.253 199.575 192.616C199.297 192.979 199.095 193.245 198.967 193.416C198.903 193.501 198.849 193.544 198.807 193.544C198.764 193.544 198.743 193.491 198.743 193.384C198.743 193.213 198.796 193.053 198.903 192.904C199.159 192.584 199.468 192.2 199.831 191.752C200.193 191.283 200.556 190.813 200.919 190.344C201.303 189.875 201.633 189.459 201.911 189.096C201.74 189.096 201.516 189.107 201.239 189.128C200.983 189.149 200.748 189.181 200.535 189.224C200.321 189.245 200.204 189.256 200.183 189.256C200.076 189.256 200.087 189.171 200.215 189C200.343 188.829 200.513 188.659 200.727 188.488C200.94 188.317 201.1 188.232 201.207 188.232C201.228 188.232 201.399 188.243 201.719 188.264C202.039 188.264 202.273 188.264 202.423 188.264C202.849 187.688 203.265 187.027 203.671 186.28C204.097 185.533 204.513 184.712 204.919 183.816C205.089 183.795 205.377 183.677 205.783 183.464C206.209 183.229 206.54 182.995 206.775 182.76C206.881 182.653 206.967 182.6 207.031 182.6C207.159 182.6 207.159 182.685 207.031 182.856C206.881 183.027 206.625 183.389 206.263 183.944C205.9 184.477 205.495 185.128 205.047 185.896C204.599 186.643 204.172 187.432 203.767 188.264H206.359C206.593 188.264 206.711 188.296 206.711 188.36C206.711 188.445 206.551 188.531 206.231 188.616C205.868 188.723 205.484 188.787 205.079 188.808C204.695 188.829 204.332 188.872 203.991 188.936C203.671 189 203.436 189.139 203.287 189.352C203.159 189.501 202.977 189.821 202.743 190.312C202.508 190.803 202.252 191.368 201.975 192.008C201.719 192.627 201.495 193.256 201.303 193.896C201.111 194.515 200.993 195.037 200.951 195.464V195.592C200.951 195.763 201.004 195.901 201.111 196.008C201.217 196.115 201.324 196.168 201.431 196.168C201.708 196.168 202.06 195.997 202.487 195.656C202.935 195.315 203.393 194.909 203.863 194.44C204.332 193.949 204.737 193.501 205.079 193.096C205.228 192.925 205.356 192.765 205.463 192.616C205.591 192.467 205.665 192.371 205.687 192.328C205.729 192.413 205.751 192.477 205.751 192.52C205.751 192.648 205.708 192.787 205.623 192.936C205.559 193.085 205.484 193.213 205.399 193.32C204.993 193.853 204.503 194.419 203.927 195.016C203.351 195.592 202.732 196.083 202.071 196.488C201.431 196.893 200.769 197.096 200.087 197.096Z" fill="black"/>
<rect x="45" y="31.6116" width="41" height="104.406" transform="rotate(-15 45 31.6116)" fill="#2A6D00"/>
<rect x="138.913" y="21" width="41" height="105.395" transform="rotate(12 138.913 21)" fill="#CA0000"/>
<path fill-rule="evenodd" clip-rule="evenodd" d="M179 52.3045C179 69.1367 165.668 82.782 149.222 82.782L149.222 131H74.7778L74.7778 82.782C58.332 82.782 45 69.1367 45 52.3045C45 35.4723 58.332 21.8271 74.7778 21.8271C77.0136 21.8271 79.1918 22.0793 81.2868 22.5574C87.6179 14.9542 97.9733 10 109.674 10C121.944 10 132.735 15.4484 138.956 23.6867C142.157 22.4837 145.614 21.8271 149.222 21.8271C165.668 21.8271 179 35.4723 179 52.3045ZM58 52.9624C58 66.8733 68.4467 78.1504 81.3333 78.1504L81.3333 118H139.667V78.1504H139.667C152.553 78.1504 163 66.8733 163 52.9624C163 39.0515 152.553 27.7744 139.667 27.7744C136.84 27.7744 134.13 28.3171 131.623 29.3113C126.747 22.5028 118.292 18 108.677 18C99.5089 18 91.3946 22.0944 86.4337 28.378C84.7921 27.9829 83.0853 27.7744 81.3333 27.7744C68.4467 27.7744 58 39.0515 58 52.9624Z" fill="black"/>
<path d="M17.52 146.088C20.304 145.896 22.764 145.8 24.9 145.8C30.828 145.8 33.792 147.78 33.792 151.74C33.792 153.228 33.36 154.512 32.496 155.592C31.632 156.648 30.252 157.368 28.356 157.752C30.18 157.968 31.62 158.52 32.676 159.408C33.732 160.296 34.26 161.844 34.26 164.052C34.26 168.684 31.296 171 25.368 171H17.52V146.088ZM20.508 170.64H25.368C27.504 170.64 29.016 170.088 29.904 168.984C30.816 167.856 31.272 166.14 31.272 163.836C31.272 161.532 30.816 159.996 29.904 159.228C28.992 158.46 27.636 158.052 25.836 158.004H20.508V170.64ZM24.9 146.16C23.508 146.16 22.044 146.244 20.508 146.412V157.644H25.836C29.22 157.5 30.912 155.556 30.912 151.812C30.912 149.988 30.408 148.596 29.4 147.636C28.392 146.652 26.892 146.16 24.9 146.16ZM45.5033 171.144C42.9833 171.144 40.9313 170.424 39.3473 168.984C37.7633 167.544 36.9713 165.324 36.9713 162.324C36.9713 159.324 37.7873 156.996 39.4193 155.34C41.0753 153.684 43.1633 152.856 45.6833 152.856C48.2273 152.856 50.2913 153.576 51.8753 155.016C53.4593 156.456 54.2513 158.676 54.2513 161.676C54.2513 164.676 53.4233 167.004 51.7673 168.66C50.1353 170.316 48.0473 171.144 45.5033 171.144ZM45.7553 153.144C43.9313 153.144 42.4193 153.96 41.2193 155.592C40.0193 157.2 39.4193 159.456 39.4193 162.36C39.4193 165.24 39.9713 167.376 41.0753 168.768C42.1793 170.16 43.6433 170.856 45.4673 170.856C47.2913 170.856 48.8033 170.052 50.0033 168.444C51.2033 166.812 51.8033 164.556 51.8033 161.676C51.8033 158.772 51.2513 156.624 50.1473 155.232C49.0433 153.84 47.5793 153.144 45.7553 153.144ZM71.3527 171C70.3687 171 69.6127 170.784 69.0847 170.352C68.5807 169.92 68.3167 169.488 68.2927 169.056L68.2567 168.444V157.14C68.2567 155.244 67.7647 154.032 66.7807 153.504C66.2767 153.264 65.6527 153.144 64.9087 153.144C63.3727 153.144 61.9927 153.756 60.7687 154.98C59.5447 156.18 58.9327 157.26 58.9327 158.22V171H56.4127V153H58.9327V157.104C59.3407 156.072 60.0967 155.112 61.2007 154.224C62.3047 153.312 63.5167 152.856 64.8367 152.856C66.1567 152.856 67.2247 152.988 68.0407 153.252C68.8807 153.492 69.4927 153.84 69.8767 154.296C70.4767 155.04 70.7767 156 70.7767 157.176V168.444C70.7767 169.14 70.9087 169.68 71.1727 170.064C71.4607 170.424 71.7487 170.616 72.0367 170.64L72.4327 170.712H73.5487V171H71.3527ZM79.0339 171C78.0499 171 77.2939 170.784 76.7659 170.352C76.2619 169.92 75.9979 169.488 75.9739 169.056L75.9379 168.444V153H78.4579V168.444C78.4579 169.14 78.5899 169.68 78.8539 170.064C79.1419 170.424 79.4179 170.616 79.6819 170.64L80.1139 170.712H81.2299V171H79.0339ZM76.1539 148.968C75.8659 148.68 75.7219 148.32 75.7219 147.888C75.7219 147.456 75.8659 147.096 76.1539 146.808C76.4419 146.496 76.8019 146.34 77.2339 146.34C77.6659 146.34 78.0259 146.496 78.3139 146.808C78.6259 147.096 78.7819 147.456 78.7819 147.888C78.7819 148.32 78.6259 148.68 78.3139 148.968C78.0259 149.256 77.6659 149.4 77.2339 149.4C76.8019 149.4 76.4419 149.256 76.1539 148.968ZM87.1038 144C87.5118 144 87.8478 144.144 88.1118 144.432C88.3998 144.72 88.5438 145.02 88.5438 145.332C88.5438 145.644 88.0038 147.888 86.9238 152.064H86.4558L87.2118 146.916H87.1038C86.7198 146.916 86.3718 146.772 86.0598 146.484C85.7718 146.196 85.6278 145.86 85.6278 145.476C85.6278 145.068 85.7718 144.72 86.0598 144.432C86.3478 144.144 86.6958 144 87.1038 144ZM100.745 154.26C100.361 153.948 99.737 153.684 98.873 153.468C98.033 153.252 97.397 153.144 96.965 153.144C96.533 153.144 96.281 153.144 96.209 153.144C94.913 153.168 93.977 153.504 93.401 154.152C92.825 154.776 92.537 155.484 92.537 156.276C92.537 157.068 92.789 157.74 93.293 158.292C93.797 158.82 94.421 159.24 95.165 159.552C95.933 159.84 96.749 160.176 97.613 160.56C98.501 160.944 99.317 161.34 100.061 161.748C100.829 162.132 101.465 162.708 101.969 163.476C102.473 164.22 102.725 165.156 102.725 166.284C102.725 167.412 102.329 168.372 101.537 169.164C100.745 169.956 99.857 170.484 98.873 170.748C97.913 171.012 96.869 171.144 95.741 171.144C93.293 171.144 91.457 170.604 90.233 169.524L90.449 169.308C90.929 169.764 91.637 170.136 92.573 170.424C93.533 170.712 94.457 170.856 95.345 170.856C96.761 170.856 97.925 170.472 98.837 169.704C99.773 168.912 100.241 167.94 100.241 166.788C100.241 165.612 99.893 164.676 99.197 163.98C98.501 163.26 97.649 162.708 96.641 162.324C95.657 161.916 94.661 161.52 93.653 161.136C92.645 160.728 91.793 160.176 91.097 159.48C90.401 158.76 90.053 157.932 90.053 156.996C90.053 156.06 90.269 155.304 90.701 154.728C91.133 154.128 91.709 153.708 92.429 153.468C93.653 153.06 94.877 152.856 96.101 152.856C98.165 152.856 99.773 153.24 100.925 154.008L100.745 154.26ZM117.258 146.16V145.8H123.666V146.16H121.902V170.64H123.666V171H117.258V170.64H118.914V146.16H117.258ZM127.108 153.288V153H127.864V149.4H130.384V153H135.892V153.288H130.384V166.392C130.384 167.952 130.552 169.08 130.888 169.776C131.248 170.472 131.98 170.82 133.084 170.82C134.212 170.82 135.352 170.592 136.504 170.136L136.612 170.424C135.412 170.88 134.032 171.108 132.472 171.108C130.936 171.108 129.784 170.796 129.016 170.172C128.248 169.524 127.864 168.252 127.864 166.356V153.288H127.108ZM153.476 171C151.844 171 150.728 170.688 150.128 170.064C149.576 169.536 149.3 169.08 149.3 168.696V167.94C148.124 170.076 146.24 171.144 143.648 171.144C140.624 171.144 138.908 169.776 138.5 167.04C138.452 166.752 138.428 166.464 138.428 166.176C138.428 165.864 138.476 165.528 138.572 165.168C138.668 164.808 138.944 164.412 139.4 163.98C140.312 163.116 142.316 162.588 145.412 162.396C146.18 162.324 146.888 162.288 147.536 162.288C148.184 162.288 148.772 162.312 149.3 162.36V156.384C149.252 156.36 149.252 156.252 149.3 156.06C149.348 155.844 149.3 155.58 149.156 155.268C149.036 154.932 148.868 154.608 148.652 154.296C148.436 153.984 148.052 153.72 147.5 153.504C146.948 153.264 146.228 153.144 145.34 153.144C144.452 153.144 143.408 153.312 142.208 153.648C141.032 153.96 140.168 154.272 139.616 154.584L139.472 154.332C141.608 153.348 143.78 152.856 145.988 152.856C148.46 152.856 150.092 153.3 150.884 154.188C151.508 154.884 151.82 155.616 151.82 156.384V168.444C151.82 169.14 151.952 169.68 152.216 170.064C152.504 170.424 152.792 170.616 153.08 170.64L153.476 170.712H154.592V171H153.476ZM144.224 170.856C145.496 170.856 146.636 170.424 147.644 169.56C148.676 168.672 149.228 167.82 149.3 167.004V162.648C148.652 162.6 147.992 162.576 147.32 162.576C146.672 162.576 146.024 162.612 145.376 162.684C143.552 162.9 142.364 163.308 141.812 163.908C141.26 164.508 140.984 165.336 140.984 166.392C140.984 166.584 140.996 166.8 141.02 167.04C141.236 169.584 142.304 170.856 144.224 170.856ZM161.848 171C159.736 171 158.404 170.448 157.852 169.344C157.732 169.104 157.672 168.888 157.672 168.696V144.036H160.192V168.444C160.192 169.14 160.324 169.68 160.588 170.064C160.876 170.424 161.164 170.616 161.452 170.64L161.848 170.712H162.964V171H161.848ZM168.647 171C167.663 171 166.907 170.784 166.379 170.352C165.875 169.92 165.611 169.488 165.587 169.056L165.551 168.444V153H168.071V168.444C168.071 169.14 168.203 169.68 168.467 170.064C168.755 170.424 169.031 170.616 169.295 170.64L169.727 170.712H170.843V171H168.647ZM165.767 148.968C165.479 148.68 165.335 148.32 165.335 147.888C165.335 147.456 165.479 147.096 165.767 146.808C166.055 146.496 166.415 146.34 166.847 146.34C167.279 146.34 167.639 146.496 167.927 146.808C168.239 147.096 168.395 147.456 168.395 147.888C168.395 148.32 168.239 148.68 167.927 148.968C167.639 149.256 167.279 149.4 166.847 149.4C166.415 149.4 166.055 149.256 165.767 148.968ZM187.894 171C186.262 171 185.146 170.688 184.546 170.064C183.994 169.536 183.718 169.08 183.718 168.696V167.94C182.542 170.076 180.658 171.144 178.066 171.144C175.042 171.144 173.326 169.776 172.918 167.04C172.87 166.752 172.846 166.464 172.846 166.176C172.846 165.864 172.894 165.528 172.99 165.168C173.086 164.808 173.362 164.412 173.818 163.98C174.73 163.116 176.734 162.588 179.83 162.396C180.598 162.324 181.306 162.288 181.954 162.288C182.602 162.288 183.19 162.312 183.718 162.36V156.384C183.67 156.36 183.67 156.252 183.718 156.06C183.766 155.844 183.718 155.58 183.574 155.268C183.454 154.932 183.286 154.608 183.07 154.296C182.854 153.984 182.47 153.72 181.918 153.504C181.366 153.264 180.646 153.144 179.758 153.144C178.87 153.144 177.826 153.312 176.626 153.648C175.45 153.96 174.586 154.272 174.034 154.584L173.89 154.332C176.026 153.348 178.198 152.856 180.406 152.856C182.878 152.856 184.51 153.3 185.302 154.188C185.926 154.884 186.238 155.616 186.238 156.384V168.444C186.238 169.14 186.37 169.68 186.634 170.064C186.922 170.424 187.21 170.616 187.498 170.64L187.894 170.712H189.01V171H187.894ZM178.642 170.856C179.914 170.856 181.054 170.424 182.062 169.56C183.094 168.672 183.646 167.82 183.718 167.004V162.648C183.07 162.6 182.41 162.576 181.738 162.576C181.09 162.576 180.442 162.612 179.794 162.684C177.97 162.9 176.782 163.308 176.23 163.908C175.678 164.508 175.402 165.336 175.402 166.392C175.402 166.584 175.414 166.8 175.438 167.04C175.654 169.584 176.722 170.856 178.642 170.856ZM205.931 171C204.947 171 204.191 170.784 203.663 170.352C203.159 169.92 202.895 169.488 202.871 169.056L202.835 168.444V157.14C202.835 155.244 202.343 154.032 201.359 153.504C200.855 153.264 200.231 153.144 199.487 153.144C197.951 153.144 196.571 153.756 195.347 154.98C194.123 156.18 193.511 157.26 193.511 158.22V171H190.991V153H193.511V157.104C193.919 156.072 194.675 155.112 195.779 154.224C196.883 153.312 198.095 152.856 199.415 152.856C200.735 152.856 201.803 152.988 202.619 153.252C203.459 153.492 204.071 153.84 204.455 154.296C205.055 155.04 205.355 156 205.355 157.176V168.444C205.355 169.14 205.487 169.68 205.751 170.064C206.039 170.424 206.327 170.616 206.615 170.64L207.011 170.712H208.127V171H205.931Z" fill="black"/>
</svg>
